HIERARCHY
ROOT Hips
{
	OFFSET 0.000000 0.000000 0.000000
	CHANNELS 6 Xposition Yposition Zposition Xrotation Yrotation Zrotation
	JOINT C_ctrl
	{
		OFFSET 0.000000 35.040482 -0.000011
		CHANNELS 3 Xrotation Yrotation Zrotation
		JOINT Bip01
		{
			OFFSET -41.537640 41.789009 -0.000007
			CHANNELS 3 Xrotation Yrotation Zrotation
			JOINT Bip01_Pelvis
			{
				OFFSET -2.462887 0.000000 0.000000
				CHANNELS 3 Xrotation Yrotation Zrotation
				JOINT BN_Tail_01
				{
					OFFSET -11.399368 7.351341 -0.000013
					CHANNELS 3 Xrotation Yrotation Zrotation
					JOINT BN_Tail_02
					{
						OFFSET -11.365196 -0.343025 0.000012
						CHANNELS 3 Xrotation Yrotation Zrotation
						JOINT BN_Tail_03
						{
							OFFSET -15.076256 -0.454979 0.000017
							CHANNELS 3 Xrotation Yrotation Zrotation
							JOINT BN_Tail_04
							{
								OFFSET -17.395691 -0.525002 0.000016
								CHANNELS 3 Xrotation Yrotation Zrotation
								JOINT BN_Tail_05
								{
									OFFSET -16.699837 -0.504005 0.000016
									CHANNELS 3 Xrotation Yrotation Zrotation
									End Site
									{
										OFFSET 0.503998 -16.699829 0.000067
									}
								}
							}
						}
					}
				}
				JOINT Bip01_Spine
				{
					OFFSET 8.297798 5.916809 -0.000020
					CHANNELS 3 Xrotation Yrotation Zrotation
					JOINT Bip01_R_Thigh
					{
						OFFSET -8.297779 -5.916794 10.541781
						CHANNELS 3 Xrotation Yrotation Zrotation
						JOINT Bip01_R_Calf
						{
							OFFSET 5.631542 -22.906792 0.862690
							CHANNELS 3 Xrotation Yrotation Zrotation
							JOINT Bip01_R_HorseLink
							{
								OFFSET -16.984341 -19.231926 -3.555767
								CHANNELS 3 Xrotation Yrotation Zrotation
								JOINT Bip01_R_Foot
								{
									OFFSET 4.290367 -24.783146 0.578056
									CHANNELS 3 Xrotation Yrotation Zrotation
									JOINT Bip01_R_Toe0
									{
										OFFSET 3.561211 -5.815116 0.760802
										CHANNELS 3 Xrotation Yrotation Zrotation
										JOINT Bip01_R_Toe0Nub
										{
											OFFSET 16.135469 0.002017 1.534789
											CHANNELS 3 Xrotation Yrotation Zrotation
											End Site
											{
												OFFSET -0.000002 16.208284 -0.000056
											}
										}
									}
								}
							}
						}
					}
					JOINT Bip01_L_Thigh
					{
						OFFSET -8.297813 -5.916832 -10.541739
						CHANNELS 3 Xrotation Yrotation Zrotation
						JOINT Bip01_L_Calf
						{
							OFFSET 5.631535 -22.906792 -0.862625
							CHANNELS 3 Xrotation Yrotation Zrotation
							JOINT Bip01_L_HorseLink
							{
								OFFSET -16.984318 -19.231949 3.555875
								CHANNELS 3 Xrotation Yrotation Zrotation
								JOINT Bip01_L_Foot
								{
									OFFSET 4.290367 -24.783169 -0.577965
									CHANNELS 3 Xrotation Yrotation Zrotation
									JOINT Bip01_L_Toe0
									{
										OFFSET 3.561245 -5.815111 -0.760799
										CHANNELS 3 Xrotation Yrotation Zrotation
										JOINT Bip01_L_Toe0Nub
										{
											OFFSET 6.574303 -0.000005 -1.538561
											CHANNELS 3 Xrotation Yrotation Zrotation
											End Site
											{
												OFFSET 0.000004 -6.751935 0.000023
											}
										}
									}
								}
							}
						}
					}
					JOINT Bip01_Spine1
					{
						OFFSET 20.556803 -4.626213 -0.000025
						CHANNELS 3 Xrotation Yrotation Zrotation
						JOINT Saddle
						{
							OFFSET 17.608810 18.174690 -0.000143
							CHANNELS 3 Xrotation Yrotation Zrotation
							End Site
							{
								OFFSET -0.000063 -0.000061 -22.448387
							}
						}
						JOINT BN_center
						{
							OFFSET 10.743275 -13.417107 -0.172041
							CHANNELS 3 Xrotation Yrotation Zrotation
							End Site
							{
								OFFSET 22.434088 0.553078 -0.579614
							}
						}
						JOINT Bip01_Spine2
						{
							OFFSET 24.765072 -2.054115 -0.000032
							CHANNELS 3 Xrotation Yrotation Zrotation
							JOINT Handle
							{
								OFFSET 63.735676 16.430748 -16.052464
								CHANNELS 3 Xrotation Yrotation Zrotation
								JOINT IK_Chain01
								{
									OFFSET -4.713058 -6.020439 0.185448
									CHANNELS 3 Xrotation Yrotation Zrotation
									End Site
									{
										OFFSET -0.000023 -0.000023 -7.648071
									}
								}
							}
							JOINT BN_hair04_01
							{
								OFFSET 1.987491 16.256981 -2.049672
								CHANNELS 3 Xrotation Yrotation Zrotation
								JOINT BN_hair04_02
								{
									OFFSET -1.318762 -3.831451 -6.174704
									CHANNELS 3 Xrotation Yrotation Zrotation
									JOINT BN_hair04_03
									{
										OFFSET -0.827490 -5.886627 -5.656666
										CHANNELS 3 Xrotation Yrotation Zrotation
										End Site
										{
											OFFSET -2.658262 5.010620 -5.929780
										}
									}
								}
							}
							JOINT Bip01_Neck
							{
								OFFSET 25.574577 9.433014 -0.000084
								CHANNELS 3 Xrotation Yrotation Zrotation
								JOINT Bip01_R_Clavicle
								{
									OFFSET -16.535652 0.011192 6.705692
									CHANNELS 3 Xrotation Yrotation Zrotation
									JOINT Bip01_R_UpperArm
									{
										OFFSET 20.272621 -12.959984 2.510816
										CHANNELS 3 Xrotation Yrotation Zrotation
										JOINT Bip01_R_Forearm
										{
											OFFSET -13.633509 -15.503704 -0.653585
											CHANNELS 3 Xrotation Yrotation Zrotation
											JOINT Bip01_R_Hand
											{
												OFFSET 2.580030 -27.804676 -1.136415
												CHANNELS 3 Xrotation Yrotation Zrotation
												JOINT Bip01_R_Finger0
												{
													OFFSET -0.281744 -19.659061 -0.398649
													CHANNELS 3 Xrotation Yrotation Zrotation
													JOINT Bip01_Xtra02
													{
														OFFSET 4.152210 -5.712314 0.433813
														CHANNELS 3 Xrotation Yrotation Zrotation
														JOINT Bip01_Xtra02Nub
														{
															OFFSET 15.457960 0.041654 0.507982
															CHANNELS 3 Xrotation Yrotation Zrotation
															End Site
															{
																OFFSET -15.421730 -0.157725 -1.163459
															}
														}
													}
													JOINT Bip01_R_Finger0Nub
													{
														OFFSET 8.362326 -9.718440 -0.143142
														CHANNELS 3 Xrotation Yrotation Zrotation
														End Site
														{
															OFFSET -1.213036 -0.198171 9.872291
														}
													}
												}
											}
										}
									}
								}
								JOINT Bip01_L_Clavicle
								{
									OFFSET -16.535673 0.011162 -6.705583
									CHANNELS 3 Xrotation Yrotation Zrotation
									JOINT Bip01_L_UpperArm
									{
										OFFSET 20.272615 -12.959999 -2.510836
										CHANNELS 3 Xrotation Yrotation Zrotation
										JOINT Bip01_L_Forearm
										{
											OFFSET -13.633495 -15.503681 0.653678
											CHANNELS 3 Xrotation Yrotation Zrotation
											JOINT Bip01_L_Hand
											{
												OFFSET 2.579988 -27.804686 1.136487
												CHANNELS 3 Xrotation Yrotation Zrotation
												JOINT Bip01_L_Finger0
												{
													OFFSET -0.281765 -19.659058 0.398696
													CHANNELS 3 Xrotation Yrotation Zrotation
													JOINT Bip01_Xtra01
													{
														OFFSET 4.083549 -5.738758 -0.666714
														CHANNELS 3 Xrotation Yrotation Zrotation
														JOINT Bip01_Xtra01Nub
														{
															OFFSET 6.758158 -0.395525 -0.023239
															CHANNELS 3 Xrotation Yrotation Zrotation
															End Site
															{
																OFFSET 6.764923 -0.254147 -0.029908
															}
														}
													}
													JOINT Bip01_L_Finger0Nub
													{
														OFFSET -0.012636 -9.629153 0.045740
														CHANNELS 3 Xrotation Yrotation Zrotation
														End Site
														{
															OFFSET 0.988407 0.004791 8.293357
														}
													}
												}
											}
										}
									}
								}
								JOINT BN_hair03_01
								{
									OFFSET -5.894140 16.270622 -2.498433
									CHANNELS 3 Xrotation Yrotation Zrotation
									JOINT BN_hair03_02
									{
										OFFSET -0.189278 -7.800507 -6.219162
										CHANNELS 3 Xrotation Yrotation Zrotation
										JOINT BN_hair03_03
										{
											OFFSET 0.612345 -10.844475 -3.370718
											CHANNELS 3 Xrotation Yrotation Zrotation
											End Site
											{
												OFFSET -2.273296 2.862007 -10.769416
											}
										}
									}
								}
								JOINT Bip01_Neck1
								{
									OFFSET 9.383755 11.908699 -0.000007
									CHANNELS 3 Xrotation Yrotation Zrotation
									JOINT BN_hair02_01
									{
										OFFSET 9.126320 18.808022 -1.420810
										CHANNELS 3 Xrotation Yrotation Zrotation
										JOINT BN_hair02_02
										{
											OFFSET 0.393478 -5.181091 -5.248574
											CHANNELS 3 Xrotation Yrotation Zrotation
											JOINT BN_hair02_03
											{
												OFFSET 0.762280 -8.167076 -0.230047
												CHANNELS 3 Xrotation Yrotation Zrotation
												End Site
												{
													OFFSET -0.025837 -1.251419 -8.109770
												}
											}
										}
									}
									JOINT Bip01_Head
									{
										OFFSET 14.266129 10.475403 -0.000008
										CHANNELS 3 Xrotation Yrotation Zrotation
										JOINT BN_Reins_01
										{
											OFFSET 18.547455 -15.740112 -0.000035
											CHANNELS 3 Xrotation Yrotation Zrotation
											JOINT BN_Reins_02
											{
												OFFSET -5.372810 -5.884506 0.000028
												CHANNELS 3 Xrotation Yrotation Zrotation
												JOINT BN_Reins_03
												{
													OFFSET -6.395866 -15.947449 0.000070
													CHANNELS 3 Xrotation Yrotation Zrotation
													JOINT BN_Halter_R_01
													{
														OFFSET -1.234055 -3.096100 7.096737
														CHANNELS 3 Xrotation Yrotation Zrotation
														End Site
														{
															OFFSET 10.514435 -4.176861 -0.000004
														}
													}
													JOINT BN_Halter_L_01
													{
														OFFSET -1.234062 -3.096146 -7.096726
														CHANNELS 3 Xrotation Yrotation Zrotation
														End Site
														{
															OFFSET -10.514435 4.176865 -0.000000
														}
													}
													JOINT BN_Reins_04
													{
														OFFSET -6.737644 -16.971684 0.000074
														CHANNELS 3 Xrotation Yrotation Zrotation
														JOINT BN_Halter_R_02
														{
															OFFSET -4.688869 -11.781956 7.096771
															CHANNELS 3 Xrotation Yrotation Zrotation
															End Site
															{
																OFFSET 14.669624 -5.827511 -0.000006
															}
														}
														JOINT BN_Halter_L_02
														{
															OFFSET -4.688892 -11.782017 -7.096693
															CHANNELS 3 Xrotation Yrotation Zrotation
															End Site
															{
																OFFSET -14.669624 5.827507 -0.000002
															}
														}
														JOINT BN_Reins_05
														{
															OFFSET -6.822578 -16.971161 0.000074
															CHANNELS 3 Xrotation Yrotation Zrotation
															JOINT BN_Reins_06
															{
																OFFSET -6.140354 -15.095148 0.000066
																CHANNELS 3 Xrotation Yrotation Zrotation
																End Site
																{
																	OFFSET -15.095150 6.140352 -0.000002
																}
															}
														}
													}
												}
											}
										}
										JOINT BN_hair01_01
										{
											OFFSET 8.957344 8.870956 0.112121
											CHANNELS 3 Xrotation Yrotation Zrotation
											JOINT BN_hair01_02
											{
												OFFSET 6.002075 -2.962952 -3.121264
												CHANNELS 3 Xrotation Yrotation Zrotation
												End Site
												{
													OFFSET 5.917702 3.813591 -2.232396
												}
											}
										}
										JOINT BN_Eyebrow_R
										{
											OFFSET 11.795959 -0.430496 4.449781
											CHANNELS 3 Xrotation Yrotation Zrotation
											JOINT Bip01_Xtra06Nub
											{
												OFFSET 2.936661 -0.262573 3.246701
												CHANNELS 3 Xrotation Yrotation Zrotation
												End Site
												{
													OFFSET 2.768745 0.208199 3.394807
												}
											}
										}
										JOINT BN_Eyebrow_L
										{
											OFFSET 11.586395 -0.445618 -4.441728
											CHANNELS 3 Xrotation Yrotation Zrotation
											JOINT Bip01_Xtra05Nub
											{
												OFFSET 3.244698 -0.349442 -4.416700
												CHANNELS 3 Xrotation Yrotation Zrotation
												End Site
												{
													OFFSET 3.053162 0.072495 -4.564033
												}
											}
										}
										JOINT Bip01_R_Ear_01
										{
											OFFSET 7.142960 7.567184 4.311657
											CHANNELS 3 Xrotation Yrotation Zrotation
											JOINT Bip01_Xtra04Nub
											{
												OFFSET 9.464531 9.264214 1.682953
												CHANNELS 3 Xrotation Yrotation Zrotation
												End Site
												{
													OFFSET 8.448181 10.159340 1.910823
												}
											}
										}
										JOINT Bip01__L_Ear_01
										{
											OFFSET 7.214943 7.717056 -4.356771
											CHANNELS 3 Xrotation Yrotation Zrotation
											JOINT Bip01_Xtra03Nub
											{
												OFFSET 9.230225 8.944366 -2.322746
												CHANNELS 3 Xrotation Yrotation Zrotation
												End Site
												{
													OFFSET 8.170288 9.841324 -2.643566
												}
											}
										}
										JOINT Bip01_Jaw
										{
											OFFSET 9.196068 -4.110695 -0.000013
											CHANNELS 3 Xrotation Yrotation Zrotation
											JOINT Bip01_Ponytail1Nub
											{
												OFFSET 10.976463 -21.082108 -0.000053
												CHANNELS 3 Xrotation Yrotation Zrotation
												End Site
												{
													OFFSET 11.247093 -20.938980 0.000113
												}
											}
										}
										JOINT Bip01_HeadNub
										{
											OFFSET 29.954575 -18.249489 -0.000063
											CHANNELS 3 Xrotation Yrotation Zrotation
											End Site
											{
												OFFSET -9.198448 -13.366348 0.000168
											}
										}
									}
								}
							}
						}
					}
				}
			}
		}
	}
}
MOTION
Frames: 4
Frame Time: 0.033333
0.000000 0.000000 0.000000 0.000008 0.000000 -0.000000 -0.000000 0.000000 -0.000000 0.058957 -1.186953 1.777431 0.216601 0.728028 -0.852600 -5.148740 25.499210 15.993433 4.705320 -10.085831 32.626205 1.831127 -4.443036 23.761222 0.643143 -1.281009 12.999716 0.098065 1.519431 1.242092 -2.207439 -0.440528 7.660929 -5.988306 -1.302931 25.594418 5.673547 -1.174367 -29.643929 -7.461151 -3.367466 42.261679 15.693490 -8.960950 -76.946097 2.113591 -0.206035 -10.528576 0.005529 0.009186 -0.002371 6.946297 9.082863 15.618944 -4.640314 0.721667 -23.944936 6.027060 2.137769 32.755227 -8.956645 -15.279312 -1.141478 -6.588932 1.669383 -33.576295 0.008761 0.000225 0.038597 -1.108248 0.370044 -0.329717 3.184084 0.262140 -8.143506 1.594059 -0.176184 -0.920930 -0.938692 0.348220 -0.293443 0.000074 -0.000073 -0.000067 -0.000015 -0.041869 0.027952 1.973575 3.632375 4.930918 -0.488244 -0.148057 0.224967 2.234401 0.248971 -0.617727 0.123967 -0.543532 2.386888 -0.276186 1.699722 4.800028 6.147900 -3.437490 -13.409630 -0.001219 -0.078276 1.908785 -0.262183 0.578825 2.386535 1.415719 -0.078516 -11.740939 1.102782 -3.404857 -4.670789 -0.802406 0.160644 -0.479888 -0.804179 0.123483 -0.482665 -0.111025 0.667982 -3.126401 5.221429 -1.922596 -16.311269 -0.170300 0.957233 23.877124 -0.615043 0.784787 -6.058095 -1.274261 0.060139 -10.585703 -0.236265 1.574394 1.095443 0.028250 0.072122 2.451899 -0.000916 0.100592 2.451938 1.009459 -1.242783 1.564123 -2.675340 -2.826158 8.965878 0.971014 -0.178827 0.913089 0.055393 -0.719610 1.542387 1.398266 0.137228 -0.031061 -6.112959 -0.664193 2.435237 -3.931328 0.466446 5.649925 8.122135 1.745636 -24.760638 0.000004 -0.000242 -21.499130 0.341483 -0.989979 17.662236 -0.000112 -0.000112 -38.025985 0.000017 -0.000014 -1.797736 0.000022 -0.000012 -2.378475 -0.000187 -0.000144 -59.128681 -23.901214 -11.934656 -2.559081 34.949204 16.671930 -5.206570 -0.000104 -0.000122 -40.044095 0.000007 0.000016 -0.000020 0.441150 1.445666 -0.931104 -22.894495 -22.188626 10.517247 0.000062 -0.000073 0.000035 0.024348 -0.030013 11.786784 0.000063 -0.000070 0.000013 0.023332 -0.032268 11.715829 -0.659668 0.567474 -1.871538 0.050395 0.015269 11.756003 -0.157435 -0.242244 -2.208638 0.050232 0.014937 11.743096 -0.000017 0.000024 5.317375 -0.003491 -0.040864 11.750685 0.000081 -0.000037 11.750687 
0.000000 0.000000 0.000000 0.000008 0.000000 -0.000000 -0.000000 0.000000 -0.000000 0.067273 -1.189147 1.232915 0.220424 0.678408 -0.748626 -4.808923 28.461523 14.631442 4.541105 -9.742189 32.821668 1.793691 -4.257524 24.186444 0.720468 -1.377022 13.754179 0.169977 0.851724 2.451503 -2.122908 -0.391006 6.984002 -5.455897 -2.438760 27.747024 6.360794 -1.547100 -33.587797 -7.087486 -3.006001 39.650901 13.576945 -8.573113 -78.935199 1.844356 -0.163223 -9.311382 0.005529 0.009184 -0.002378 6.608216 8.173342 15.934509 -4.113289 0.536121 -21.120400 5.493853 1.774694 29.506762 -8.357071 -13.656940 -2.846774 -5.685045 1.447346 -30.393147 0.008761 0.000226 0.038597 -1.096740 0.345629 -0.289925 3.070279 0.312249 -7.034303 1.594059 -0.176184 -0.920930 -0.665423 0.353237 -0.256009 0.000073 -0.000073 -0.000069 -0.000014 -0.041869 0.027951 1.973551 3.632358 4.930894 -0.488251 -0.148058 0.224966 2.234406 0.248972 -0.617728 0.173530 -0.621052 2.882399 -0.285503 1.674863 3.631380 5.936874 -3.132030 -14.109807 0.008284 -0.286899 7.002272 -0.298733 0.715490 -2.829281 1.863407 -0.164892 -15.510590 1.147611 -3.301286 -4.272138 -0.802190 0.160645 -0.479870 -0.804180 0.123483 -0.482664 -0.150984 0.750873 -3.633650 4.867773 -1.856914 -15.379043 -0.158100 0.926458 23.069857 -0.650429 0.819682 -5.675914 -1.242679 0.056839 -10.333593 -0.215893 1.443020 1.059109 0.028250 0.072122 2.451899 -0.000915 0.100591 2.451938 1.009352 -1.242800 1.564140 -2.675340 -2.826160 8.965877 0.971014 -0.178828 0.913090 0.080526 -0.789495 2.124729 1.398258 0.137212 -0.031089 -6.112954 -0.664193 2.435236 -3.931327 0.466446 5.649921 7.727686 1.728530 -23.902057 0.000004 -0.000242 -21.499130 0.325467 -1.013436 16.213616 -0.000112 -0.000112 -37.858625 0.000017 -0.000014 -1.797734 0.000022 -0.000012 -2.378477 -0.000186 -0.000144 -58.866921 -23.901214 -11.934656 -2.559079 34.949204 16.671927 -5.206599 -0.000104 -0.000121 -39.880850 0.000007 0.000016 -0.000020 0.441145 1.445669 -0.931102 -22.894494 -22.188624 10.517241 0.000063 -0.000073 0.000037 0.024216 -0.030048 11.786610 0.000072 -0.000035 0.000002 0.023211 -0.032306 11.716008 -0.750941 0.570497 -1.645174 0.050294 0.015081 11.755970 -0.130360 -0.191636 -2.008725 0.050131 0.014752 11.743150 -0.000017 0.000024 5.339365 -0.003491 -0.040864 11.750692 0.000081 -0.000037 11.750684 
0.000000 0.000000 0.000000 0.000008 0.000000 -0.000000 -0.000000 0.000000 -0.000000 0.076247 -1.186724 0.640492 0.223099 0.629888 -0.629394 -4.309689 31.447618 13.160629 4.308401 -9.290406 32.887156 1.716804 -3.989825 24.530633 0.766738 -1.355872 14.406857 0.256802 0.179114 3.673620 -2.036920 -0.342544 6.278788 -4.654934 -2.789843 28.463543 6.432280 -1.589455 -34.006569 -6.137658 -2.218674 33.445572 11.529613 -6.343526 -70.052975 1.669660 -0.134723 -8.422538 0.005530 0.009184 -0.002367 6.283774 7.181168 16.224146 -3.526112 0.362923 -18.023782 4.882457 1.409635 25.917194 -7.721871 -11.884871 -4.646684 -4.715644 1.378249 -26.916570 0.008761 0.000226 0.038597 -1.086729 0.320432 -0.255121 2.954407 0.360616 -5.914014 1.594059 -0.176184 -0.920929 -0.373487 0.360362 -0.223580 0.000074 -0.000073 -0.000069 -0.000014 -0.041869 0.027951 1.973542 3.632348 4.930886 -0.488247 -0.148060 0.224964 2.234403 0.248972 -0.617728 0.225808 -0.702735 3.390857 -0.297434 1.647553 2.406722 5.678888 -2.802877 -14.832108 0.039185 -0.509662 12.487800 -0.299762 0.853703 -8.436586 2.323047 -0.286193 -19.439572 1.192145 -3.196332 -3.869651 -0.802217 0.160645 -0.479873 -0.804179 0.123482 -0.482664 -0.191243 0.829770 -4.097935 4.481356 -1.777931 -14.381103 -0.143362 0.887480 22.053702 -0.676655 0.847946 -5.154041 -1.214908 0.054437 -10.116385 -0.195377 1.310259 1.022476 0.028250 0.072122 2.451899 -0.000915 0.100590 2.451939 1.009582 -1.242764 1.564120 -2.675340 -2.826158 8.965872 0.971017 -0.178829 0.913093 0.107349 -0.864172 2.719493 1.398203 0.137218 -0.031053 -6.112960 -0.664193 2.435236 -3.931328 0.466445 5.649927 7.317647 1.723163 -23.010416 0.000005 -0.000243 -21.499135 0.309338 -1.039004 14.739879 -0.000111 -0.000112 -37.689281 0.000017 -0.000014 -1.797736 0.000022 -0.000012 -2.378475 -0.000185 -0.000143 -58.602572 -23.901216 -11.934656 -2.559079 34.949228 16.671916 -5.206644 -0.000103 -0.000122 -39.715972 0.000006 0.000016 -0.000019 0.441147 1.445666 -0.931101 -22.894506 -22.188645 10.517235 0.000057 -0.000059 0.000018 0.024233 -0.030044 11.786635 0.000051 -0.000092 0.000009 0.023226 -0.032297 11.715983 -0.843007 0.573493 -1.416516 0.050307 0.015104 11.755973 -0.103124 -0.140418 -1.806811 0.050144 0.014775 11.743138 -0.000016 0.000024 5.361571 -0.003491 -0.040864 11.750688 0.000081 -0.000037 11.750680 
0.000000 0.000000 0.000000 0.000008 0.000000 -0.000000 -0.000000 0.000000 -0.000000 -0.000000 -1.181030 -0.000000 0.223021 0.581520 -0.496631 -3.783010 33.845397 11.893213 4.007471 -8.729266 32.809787 1.603530 -3.649302 24.789171 0.788069 -1.252734 14.966143 0.311927 -0.090796 4.485098 -1.950012 -0.295160 5.550530 -3.646772 -2.663245 28.398543 6.162844 -1.433424 -32.436965 -4.607855 -1.261941 24.345128 8.638871 -3.146249 -52.908319 1.204360 -0.067870 -6.062473 0.005529 0.009185 -0.002376 5.974549 6.129930 16.432037 -2.876440 0.210570 -14.646530 4.194887 1.057776 22.019652 -7.072657 -10.006382 -6.467178 -3.773788 1.395332 -23.223625 0.008761 0.000226 0.038597 -1.078154 0.294579 -0.224597 2.836436 0.407160 -4.782635 1.594058 -0.176184 -0.920931 -0.065694 0.369279 -0.195479 0.000074 -0.000073 -0.000069 -0.000014 -0.041869 0.027951 1.973497 3.632338 4.930904 -0.488244 -0.148059 0.224964 2.234411 0.248968 -0.617730 0.279762 -0.786394 3.903788 -0.312453 1.620612 1.166457 5.369137 -2.471155 -15.348581 0.088382 -0.718474 17.720610 -0.285851 0.989820 -13.703554 2.727482 -0.421653 -22.963419 1.230466 -3.065958 -3.440305 -0.802247 0.160645 -0.479864 -0.804179 0.123483 -0.482668 -0.231214 0.903340 -4.515864 4.067212 -1.686126 -13.319686 -0.126930 0.841353 20.859686 -0.694906 0.869527 -4.531940 -1.189786 0.052664 -9.923239 -0.174908 1.176308 0.985534 0.028250 0.072122 2.451900 -0.000916 0.100592 2.451937 1.009564 -1.242767 1.564125 -2.675341 -2.826159 8.965877 0.971013 -0.178827 0.913089 0.135393 -0.941386 3.317570 1.398090 0.137210 -0.031038 -6.112954 -0.664193 2.435238 -3.931331 0.466446 5.649922 6.894272 1.730894 -22.095411 0.000004 -0.000242 -21.499129 0.294835 -1.067246 13.274602 -0.000111 -0.000111 -37.529731 0.000017 -0.000014 -1.797735 0.000022 -0.000012 -2.378480 -0.000184 -0.000143 -58.354377 -23.901216 -11.934658 -2.559077 34.949176 16.671932 -5.206551 -0.000111 -0.000117 -39.562262 0.000006 0.000016 -0.000020 0.441145 1.445668 -0.931099 -22.894497 -22.188624 10.517247 0.000057 -0.000057 0.000022 0.024248 -0.030041 11.786657 0.000049 -0.000087 0.000014 0.023242 -0.032296 11.715955 -0.938156 0.579096 -1.196361 0.050319 0.015127 11.755975 -0.076736 -0.090161 -1.615071 0.050156 0.014799 11.743132 -0.000017 0.000024 5.371965 -0.003473 -0.040886 11.750688 0.000081 -0.000037 11.750692 
